<svg width="57" height="56" viewBox="0 0 57 56" fill="none" xmlns="http://www.w3.org/2000/svg">
<g clip-path="url(#clip0_20_1168)">
<path fill-rule="evenodd" clip-rule="evenodd" d="M28.8507 0L26.092 0.54902V2.9281V6.49673V28.366L31.5173 34.0392V6.49673V2.9281V0.54902L28.8507 0ZM56.8047 14.183V31.9346V34.2222C56.8047 38.9804 54.8737 43.3726 52.115 47.1242C49.6323 50.5098 46.5058 53.4379 43.1955 55.9085L43.1035 56L7.42538 18.8497L6.32193 19.0327V32.4837V34.2222C6.32193 37.6993 7.88515 40.8105 9.81618 43.4641C11.1955 45.2941 12.7587 47.0327 14.5058 48.5882V56L14.4139 55.9085C11.1955 53.4379 7.9771 50.5098 5.49434 47.1242C2.73572 43.3726 0.804688 38.9804 0.804688 34.2222V33.2157V14.183L6.32193 13.085L7.70124 12.8105L9.08055 12.5359L43.4714 48.2222C45.1265 46.7582 46.5978 45.1111 47.8851 43.3726C49.8162 40.719 51.3794 37.5163 51.3794 34.1307V29.8301V28.366V19.0327V13.085L52.9426 13.3595L54.6897 13.7255L56.8047 14.183ZM26.092 40.1699V46.6667C24.8047 45.8431 23.6093 44.9281 22.3219 44.0131C21.0346 43.0065 19.8392 42 18.7357 40.902C17.8162 39.9869 16.9886 39.0719 16.253 38.0654C15.5173 37.1503 14.5058 35.4118 14.5058 34.1307V28.0915L9.08055 22.4183V34.1307C9.08055 36.5098 10.092 38.9804 12.0231 41.634C13.7702 44.0131 16.161 46.3922 19.2874 48.7712C23.1495 51.6993 27.0116 53.8954 28.9426 54.902C30.4139 54.0784 33.1725 52.5229 36.207 50.5098L32.0691 46.3922C31.8851 46.4837 31.7012 46.5752 31.6093 46.7582V45.9346L26.092 40.1699ZM14.5058 16.2876V8.69281V2.8366L8.9886 3.84314V11.0719L9.44837 10.9804L14.5058 16.2876ZM42.4599 45.3856C43.7472 44.1961 44.7587 42.915 45.6782 41.7255C47.6093 39.0719 48.6208 36.6013 48.6208 34.2222V3.84314L43.1955 2.7451V28.183V34.1307C43.1955 35.4118 42.092 37.0588 41.4484 38.0654C40.7127 39.0719 39.7932 40.0784 38.9656 40.902C38.8737 40.9935 38.7817 41.085 38.5978 41.268L42.4599 45.3856Z" fill="white"/>
</g>
<defs>
<clipPath id="clip0_20_1168">
<rect width="56" height="56" fill="white" transform="translate(0.804688)"/>
</clipPath>
</defs>
</svg>
