<svg width="60" height="60" viewBox="0 0 60 60" fill="none" xmlns="http://www.w3.org/2000/svg">
<circle cx="30" cy="30" r="30" fill="url(#paint0_linear_851_1755)"/>
<path d="M41.25 20.4375H37.0495L34.9669 17.3128C34.9156 17.236 34.8462 17.1729 34.7647 17.1293C34.6833 17.0856 34.5924 17.0627 34.5 17.0625H25.5C25.4076 17.0627 25.3167 17.0856 25.2353 17.1293C25.1538 17.1729 25.0844 17.236 25.0331 17.3128L22.9477 20.4375H18.75C18.0041 20.4375 17.2887 20.7338 16.7613 21.2613C16.2338 21.7887 15.9375 22.5041 15.9375 23.25V39C15.9375 39.7459 16.2338 40.4613 16.7613 40.9887C17.2887 41.5162 18.0041 41.8125 18.75 41.8125H41.25C41.9959 41.8125 42.7113 41.5162 43.2387 40.9887C43.7662 40.4613 44.0625 39.7459 44.0625 39V23.25C44.0625 22.5041 43.7662 21.7887 43.2387 21.2613C42.7113 20.7338 41.9959 20.4375 41.25 20.4375ZM42.9375 39C42.9375 39.4476 42.7597 39.8768 42.4432 40.1932C42.1268 40.5097 41.6976 40.6875 41.25 40.6875H18.75C18.3024 40.6875 17.8732 40.5097 17.5568 40.1932C17.2403 39.8768 17.0625 39.4476 17.0625 39V23.25C17.0625 22.8024 17.2403 22.3732 17.5568 22.0568C17.8732 21.7403 18.3024 21.5625 18.75 21.5625H23.25C23.3426 21.5626 23.4338 21.5397 23.5155 21.4961C23.5972 21.4524 23.6669 21.3892 23.7183 21.3122L25.7995 18.1875H34.1977L36.2817 21.3122C36.3331 21.3892 36.4028 21.4524 36.4845 21.4961C36.5662 21.5397 36.6574 21.5626 36.75 21.5625H41.25C41.6976 21.5625 42.1268 21.7403 42.4432 22.0568C42.7597 22.3732 42.9375 22.8024 42.9375 23.25V39ZM30 24.9375C28.8875 24.9375 27.7999 25.2674 26.8749 25.8855C25.9499 26.5036 25.2289 27.3821 24.8032 28.4099C24.3774 29.4377 24.266 30.5687 24.4831 31.6599C24.7001 32.751 25.2359 33.7533 26.0225 34.54C26.8092 35.3266 27.8115 35.8624 28.9026 36.0794C29.9938 36.2965 31.1248 36.1851 32.1526 35.7593C33.1804 35.3336 34.0589 34.6126 34.677 33.6876C35.2951 32.7626 35.625 31.675 35.625 30.5625C35.625 29.0707 35.0324 27.6399 33.9775 26.585C32.9226 25.5301 31.4918 24.9375 30 24.9375ZM30 35.0625C29.11 35.0625 28.24 34.7986 27.4999 34.3041C26.7599 33.8096 26.1831 33.1068 25.8425 32.2846C25.5019 31.4623 25.4128 30.5575 25.5865 29.6846C25.7601 28.8117 26.1887 28.0099 26.818 27.3805C27.4474 26.7512 28.2492 26.3226 29.1221 26.149C29.995 25.9753 30.8998 26.0644 31.7221 26.405C32.5443 26.7456 33.2471 27.3224 33.7416 28.0624C34.2361 28.8025 34.5 29.6725 34.5 30.5625C34.5 31.756 34.0259 32.9006 33.182 33.7445C32.3381 34.5884 31.1935 35.0625 30 35.0625Z" fill="white"/>
<defs>
<linearGradient id="paint0_linear_851_1755" x1="21.8182" y1="-18" x2="86.3364" y2="12.4786" gradientUnits="userSpaceOnUse">
<stop stop-color="#980F5A"/>
<stop offset="1" stop-color="#511162"/>
</linearGradient>
</defs>
</svg>
